<?xml version="1.0" encoding="UTF-8"?>
<svg version="1.1" xmlns="http://www.w3.org/2000/svg" width="512" height="512">
<path d="M0 0 C1.53140625 0.74443359 1.53140625 0.74443359 3.09375 1.50390625 C12.73315493 6.47253211 25.17867808 14.47693803 30.23266602 24.42675781 C32.45274563 27.65919864 34.40679576 28.53023178 37.96875 30.12890625 C39.18305549 30.68848982 40.39732827 31.24814436 41.61157227 31.80786133 C42.56400314 32.23683212 42.56400314 32.23683212 43.53567505 32.67446899 C60.99920905 40.56937439 76.97243893 50.05669819 92 62 C92.89589844 62.70382813 93.79179687 63.40765625 94.71484375 64.1328125 C145.96411362 105.16163974 177.63414425 164.15290318 185.53271484 229.22387695 C186.05050229 234.00469559 186.1944167 238.74870686 186.23828125 243.5546875 C186.2480751 244.44566132 186.25786896 245.33663513 186.26795959 246.25460815 C186.44180244 266.18216883 186.21158719 285.43246591 182 305 C181.67854004 306.52778076 181.67854004 306.52778076 181.35058594 308.08642578 C173.55544411 344.16306836 157.97751546 378.06691528 135 407 C134.319375 407.87269531 133.63875 408.74539063 132.9375 409.64453125 C93.3646931 459.32877226 34.42130946 492.89944792 -28.8671875 500.33984375 C-94.54681734 506.54060169 -160.67719183 490.3821749 -212.33984375 448.3125 C-215.6106107 445.5988816 -218.8135604 442.8117988 -222 440 C-222.50241211 439.56075195 -223.00482422 439.12150391 -223.52246094 438.66894531 C-269.69715471 398.14216464 -298.7262871 339.12990702 -304 278 C-304.14825935 274.7561158 -304.18625741 271.51651266 -304.203125 268.26953125 C-304.21013931 267.36479568 -304.21715363 266.46006012 -304.22438049 265.52790833 C-304.24179957 262.6227211 -304.24823308 259.71773753 -304.25 256.8125 C-304.25067474 255.82135193 -304.25134949 254.83020386 -304.25204468 253.809021 C-304.23669908 239.65120198 -303.89023397 225.90498391 -301 212 C-300.75056641 210.70255859 -300.75056641 210.70255859 -300.49609375 209.37890625 C-289.10728751 150.57892145 -256.23163292 97.23113967 -208.75 60.6875 C-208.01048096 60.11773437 -207.27096191 59.54796875 -206.5090332 58.9609375 C-201.25747385 55 -201.25747385 55 -199 55 C-199.03480469 54.18660156 -199.06960937 53.37320313 -199.10546875 52.53515625 C-199.45703475 37.65219571 -197.65517713 18.74413385 -189.0390625 6.12890625 C-187 4 -187 4 -183.8125 3.1875 C-178.92928321 4.22818555 -176.93130514 6.48423054 -173.41015625 9.890625 C-166.00610684 16.37066825 -157.59234421 18.51385973 -147.96875 18.38671875 C-138.6463175 17.47833212 -130.25971774 13.02977126 -121.82421875 9.2109375 C-107.10849344 2.54977531 -92.51458152 -3.45184006 -77 -8 C-75.74316406 -8.38027344 -74.48632812 -8.76054687 -73.19140625 -9.15234375 C-48.20402285 -15.42085496 -22.68802478 -11.1503646 0 0 Z " fill="#FE4155" transform="translate(315,11)"/>
<path d="M0 0 C1.53140625 0.74443359 1.53140625 0.74443359 3.09375 1.50390625 C9.69339565 4.90568989 15.47940796 9.03898386 21 14 C21.93199219 14.83253296 21.93199219 14.83253296 22.8828125 15.68188477 C28.16015279 20.63437932 31.41456776 25.74260534 34.625 32.1875 C38.90723685 40.74567629 42.49145176 45.51589684 51.3125 49.75 C61.4121047 55.15658186 68.27410612 63.11550347 72 74 C73.87216549 82.24215079 74.32253577 90.32260557 74.25 98.75 C74.24395752 99.88381104 74.23791504 101.01762207 74.23168945 102.18579102 C74.08236232 114.89126776 72.76910833 126.81493747 69 139 C66.26706906 147.9901821 64.24311623 156.6766283 63 166 C58.71 166.66 54.42 167.32 50 168 C49.484375 166.14375 48.96875 164.2875 48.4375 162.375 C46.9545448 157.36069106 45.10589283 153.51625951 42.3125 149.125 C37.663458 140.41915064 38.21456462 130.82856976 38.26293945 121.19189453 C38.27258577 107.0889831 34.8605252 95.51789355 25 85 C21.43825207 82.32868905 17.2688292 82.40029504 13 83 C9.40571737 84.34665395 6.07687037 86.1447947 2.6875 87.9375 C-14.32672309 96.4946861 -33.02508751 103.48723312 -52 106 C-52.9590625 106.12761719 -53.918125 106.25523438 -54.90625 106.38671875 C-84.90890841 109.42646177 -112.83107947 105.8685679 -140.4765625 93.75 C-143.4353098 92.87062 -145.08953151 93.02484303 -148 94 C-152.36996095 99.46245118 -152.11595721 105.8828797 -152.140625 112.6015625 C-152.15896581 114.0768382 -152.17853728 115.55209901 -152.19921875 117.02734375 C-152.22800192 119.31780126 -152.2499962 121.6072999 -152.25048828 123.89794922 C-152.26579848 133.9961212 -153.19486705 141.86730284 -158 151 C-158.38414062 151.75941895 -158.76828125 152.51883789 -159.1640625 153.30126953 C-159.80054358 154.55062239 -160.44112152 155.79789724 -161.0859375 157.04296875 C-162.73411974 160.57176918 -163.8634931 164.28052289 -165 168 C-165.71285156 167.84273437 -166.42570313 167.68546875 -167.16015625 167.5234375 C-172.25385283 166.58457183 -178.18649881 165.60993024 -182.9765625 167.9765625 C-186.6747907 170.94607578 -188.59909922 173.98325484 -189.51171875 178.57421875 C-190.07758539 188.59634572 -186.99017336 196.70073002 -183.37768555 205.94018555 C-181.18789449 211.54571586 -179.40654967 216.85720931 -178.4519043 222.80981445 C-177.43164924 227.75455143 -175.50241323 231.83562975 -171.5 234.9375 C-168.80678122 236.15898116 -168.80678122 236.15898116 -165 237 C-164.34 229.08 -163.68 221.16 -163 213 C-161 214 -161 214 -160.34912109 215.69555664 C-160.06415771 216.79178345 -160.06415771 216.79178345 -159.7734375 217.91015625 C-159.55059082 218.72750244 -159.32774414 219.54484863 -159.09814453 220.38696289 C-158.85950684 221.26989014 -158.62086914 222.15281738 -158.375 223.0625 C-153.39375874 240.47195376 -145.14138944 258.1536546 -130 269 C-127.34500524 270.20579162 -127.34500524 270.20579162 -125 271 C-124.52691406 270.29875 -124.05382812 269.5975 -123.56640625 268.875 C-115.06405443 256.67669407 -106.21879672 249.73959891 -92 245 C-71.94737615 244.0437739 -71.94737615 244.0437739 -64.10546875 249.12890625 C-58.66570621 251.37949446 -51.14515987 251.17482521 -45.66796875 249.12890625 C-44.4044956 248.42640488 -43.15252383 247.70274307 -41.9140625 246.95703125 C-38.17665485 245.08832743 -34.10945694 245.1568495 -30 245 C-28.81083984 244.90525391 -28.81083984 244.90525391 -27.59765625 244.80859375 C-15.92185533 244.22196518 -5.85994321 248.65557339 3 256 C5.75 258.5 5.75 258.5 8 261 C8.80630859 261.88751953 8.80630859 261.88751953 9.62890625 262.79296875 C14 267.71171694 14 267.71171694 14 270 C32.54054117 257.42596277 42.05128624 236.28427373 47 215 C49.5455049 218.81825735 49.69676253 222.32038086 50.10546875 226.7734375 C50.18935349 227.65792572 50.27323822 228.54241394 50.35966492 229.45370483 C51.26620332 239.83731813 51.35194011 250.20838073 51.3125 260.625 C51.30976578 262.13237228 51.30976578 262.13237228 51.30697632 263.67019653 C51.2594088 279.28830291 50.74335622 294.58635274 48 310 C47.82839355 310.9782373 47.65678711 311.95647461 47.47998047 312.96435547 C40.91355463 349.02395043 25.49717851 385.54678735 -5.125 407.625 C-24.44561241 420.46005472 -47.40392458 429.84498523 -70.94921875 425.3515625 C-100.1736186 418.08428347 -124.27834245 399.52197176 -139.85546875 373.94921875 C-140.23316406 373.30597656 -140.61085937 372.66273438 -141 372 C-171.7217475 374.9881335 -198.98566506 389.15848074 -225.31591797 404.6862793 C-240.73020782 413.70637657 -240.73020782 413.70637657 -248 413 C-277.55993666 386.81978306 -293.7644241 337.01600038 -301 300 C-301.26683594 298.72697021 -301.26683594 298.72697021 -301.5390625 297.42822266 C-307.0032462 270.6873316 -306.54500436 238.67714698 -301 212 C-300.75056641 210.70255859 -300.75056641 210.70255859 -300.49609375 209.37890625 C-289.10728751 150.57892145 -256.23163292 97.23113967 -208.75 60.6875 C-208.01048096 60.11773437 -207.27096191 59.54796875 -206.5090332 58.9609375 C-201.25747385 55 -201.25747385 55 -199 55 C-199.03480469 54.18660156 -199.06960937 53.37320313 -199.10546875 52.53515625 C-199.45703475 37.65219571 -197.65517713 18.74413385 -189.0390625 6.12890625 C-187 4 -187 4 -183.8125 3.1875 C-178.92928321 4.22818555 -176.93130514 6.48423054 -173.41015625 9.890625 C-166.00610684 16.37066825 -157.59234421 18.51385973 -147.96875 18.38671875 C-138.6463175 17.47833212 -130.25971774 13.02977126 -121.82421875 9.2109375 C-107.10849344 2.54977531 -92.51458152 -3.45184006 -77 -8 C-75.74316406 -8.38027344 -74.48632812 -8.76054687 -73.19140625 -9.15234375 C-48.20402285 -15.42085496 -22.68802478 -11.1503646 0 0 Z " fill="#FE4155" transform="translate(315,11)"/>
<path d="M0 0 C7.64779481 6.83419962 13.27584988 16.4596635 14.9375 26.625 C14.98168796 28.82507713 14.97690416 31.02639449 14.9375 33.2265625 C14.88622265 47.84701803 15.2404554 59.83046168 22.90625 72.77734375 C25.22295262 76.7155364 25.6537869 80.09065675 25.9375 84.625 C26.64003906 84.30402344 27.34257812 83.98304688 28.06640625 83.65234375 C33.27366723 81.78906533 39.77415134 81.24642004 44.9453125 83.5 C48.80269493 86.44634236 50.59345183 90.07017009 51.9375 94.625 C52.6639328 101.83235283 51.32454858 107.53012065 48.6875 114.1875 C46.23781826 120.69956043 44.23268815 127.06356789 42.8125 133.875 C41.1851667 141.43858856 38.98781906 146.65093892 33.4375 152.0625 C30.9375 153.625 30.9375 153.625 25.9375 154.625 C25.2775 148.025 24.6175 141.425 23.9375 134.625 C23.1640625 136.5740625 23.1640625 136.5740625 22.375 138.5625 C21.82585937 139.92375 21.82585937 139.92375 21.265625 141.3125 C20.281945 143.76591364 19.31602185 146.22361817 18.359375 148.6875 C12.54939544 163.46502046 5.07646618 177.04359443 -8.0625 186.625 C-8.7225 186.625 -9.3825 186.625 -10.0625 186.625 C-11.53515625 184.98046875 -11.53515625 184.98046875 -13.125 182.8125 C-13.65222656 182.10480469 -14.17945313 181.39710938 -14.72265625 180.66796875 C-16.0625 178.625 -16.0625 178.625 -17.0625 175.625 C-18.37031354 174.9095659 -19.70927361 174.25030038 -21.0625 173.625 C-22.55084326 172.51216876 -24.02922275 171.385946 -25.5 170.25 C-34.13346694 164.15952774 -43.5993905 161.79135388 -54.0625 162.625 C-55.32900391 162.67333984 -55.32900391 162.67333984 -56.62109375 162.72265625 C-60.92989275 162.97842971 -64.09389591 163.44842562 -67.8125 165.6875 C-73.44921465 168.82155926 -79.81982401 168.39505464 -86.0625 167.625 C-88.16796875 166.75390625 -88.16796875 166.75390625 -89.8125 165.6875 C-94.2425419 162.87612726 -97.91031444 162.81209054 -103.0625 162.625 C-104.08859375 162.55023438 -105.1146875 162.47546875 -106.171875 162.3984375 C-116.78463637 161.91603926 -125.62713028 165.15134417 -134.0625 171.625 C-134.60003906 172.01945313 -135.13757813 172.41390625 -135.69140625 172.8203125 C-141.27981048 177.19602051 -145.07862708 182.8095803 -149.0625 188.625 C-163.61303202 182.54023206 -172.06511574 168.71332943 -178.3125 154.8125 C-181.51842792 146.94096189 -183.8222608 138.8127769 -186.0625 130.625 C-186.11784912 131.21514893 -186.17319824 131.80529785 -186.23022461 132.41333008 C-186.48317687 135.08841208 -186.741527 137.76294603 -187 140.4375 C-187.08701172 141.36626953 -187.17402344 142.29503906 -187.26367188 143.25195312 C-187.35068359 144.14462891 -187.43769531 145.03730469 -187.52734375 145.95703125 C-187.605896 146.77921143 -187.68444824 147.6013916 -187.76538086 148.44848633 C-188.0625 150.625 -188.0625 150.625 -189.0625 153.625 C-192.73741247 153.36861076 -194.72847622 152.87949431 -197.6875 150.625 C-201.74085772 145.5049692 -203.77308897 140.39254212 -204.91796875 133.99609375 C-206.00000984 128.32179691 -208.05020381 123.2210801 -210.1875 117.875 C-213.43805989 109.329684 -215.84606782 101.84670621 -214.0625 92.625 C-212.375 89 -212.375 89 -210.0625 86.625 C-209.0415625 85.449375 -209.0415625 85.449375 -208 84.25 C-203.52820193 81.77623936 -199.06713826 82.00661079 -194.0625 82.625 C-191.21875 83.6484375 -191.21875 83.6484375 -189.0625 84.625 C-188.96525635 84.07827637 -188.8680127 83.53155273 -188.76782227 82.96826172 C-187.60824105 77.0894546 -185.66821874 72.09598388 -183 66.75 C-182.27863659 65.2740777 -181.55853081 63.79753988 -180.83984375 62.3203125 C-180.52265381 61.68109863 -180.20546387 61.04188477 -179.87866211 60.38330078 C-177.98716812 56.3083562 -177.88201361 52.61052354 -177.81640625 48.2109375 C-177.78343871 46.71223438 -177.75022761 45.21353661 -177.71679688 43.71484375 C-177.6696459 41.36511276 -177.62525928 39.01539869 -177.58569336 36.66552734 C-177.20429911 15.05623142 -177.20429911 15.05623142 -172.75 10 C-169.37844639 8.27501908 -168.68050165 8.64310918 -165.0625 9.625 C-161.89644606 10.67394611 -158.76196586 11.80500965 -155.625 12.9375 C-114.81976112 27.34909316 -70.59727716 26.421094 -30.92822266 8.18408203 C-26.84963975 6.2163502 -22.78537857 4.23331426 -18.77441406 2.13061523 C-12.23530064 -1.20320071 -7.08840041 -3.18254713 0 0 Z " fill="#F8B98E" transform="translate(339.0625,94.375)"/>
<path d="M0 0 C2 1 2 1 2.65087891 2.69555664 C2.84085449 3.42637451 3.03083008 4.15719238 3.2265625 4.91015625 C3.44940918 5.72750244 3.67225586 6.54484863 3.90185547 7.38696289 C4.25981201 8.71135376 4.25981201 8.71135376 4.625 10.0625 C9.60624126 27.47195376 17.85861056 45.1536546 33 56 C35.65499476 57.20579162 35.65499476 57.20579162 38 58 C38.47308594 57.29875 38.94617188 56.5975 39.43359375 55.875 C47.93594557 43.67669407 56.78120328 36.73959891 71 32 C91.05262385 31.0437739 91.05262385 31.0437739 98.89453125 36.12890625 C104.33429379 38.37949446 111.85484013 38.17482521 117.33203125 36.12890625 C118.5955044 35.42640488 119.84747617 34.70274307 121.0859375 33.95703125 C124.82334515 32.08832743 128.89054306 32.1568495 133 32 C133.79277344 31.93683594 134.58554687 31.87367188 135.40234375 31.80859375 C147.07814467 31.22196518 157.14005679 35.65557339 166 43 C168.75 45.5 168.75 45.5 171 48 C171.53753906 48.59167969 172.07507813 49.18335938 172.62890625 49.79296875 C177 54.71171694 177 54.71171694 177 57 C195.54054117 44.42596277 205.05128624 23.28427373 210 2 C212.5455049 5.81825735 212.69676253 9.32038086 213.10546875 13.7734375 C213.18935349 14.65792572 213.27323822 15.54241394 213.35966492 16.45370483 C214.26620332 26.83731813 214.35194011 37.20838073 214.3125 47.625 C214.31067719 48.62991486 214.30885437 49.63482971 214.30697632 50.67019653 C214.2594088 66.28830291 213.74335622 81.58635274 211 97 C210.74259033 98.46735596 210.74259033 98.46735596 210.47998047 99.96435547 C203.91355463 136.02395043 188.49717851 172.54678735 157.875 194.625 C138.55438759 207.46005472 115.59607542 216.84498523 92.05078125 212.3515625 C62.30976541 204.95581574 38.36488809 185.97843273 22.49633789 160.07885742 C12.61940591 143.43472872 6.87749138 125.85060922 2.75 107 C2.5037085 105.8860083 2.25741699 104.7720166 2.00366211 103.62426758 C-1.62356809 86.30753233 -2.32431786 69.37028235 -2.26074219 51.72436523 C-2.2500484 48.20343685 -2.26068324 44.68302211 -2.2734375 41.16210938 C-2.28070862 27.32481037 -1.61956765 13.74326738 0 0 Z " fill="#3C3B65" transform="translate(152,224)"/>
<path d="M0 0 C1.53140625 0.74443359 1.53140625 0.74443359 3.09375 1.50390625 C9.69339565 4.90568989 15.47940796 9.03898386 21 14 C21.62132812 14.55502197 22.24265625 15.11004395 22.8828125 15.68188477 C28.16015279 20.63437932 31.41456776 25.74260534 34.625 32.1875 C38.90723685 40.74567629 42.49145176 45.51589684 51.3125 49.75 C61.4121047 55.15658186 68.27410612 63.11550347 72 74 C73.87216549 82.24215079 74.32253577 90.32260557 74.25 98.75 C74.24395752 99.88381104 74.23791504 101.01762207 74.23168945 102.18579102 C74.08236232 114.89126776 72.76910833 126.81493747 69 139 C66.26706906 147.9901821 64.24311623 156.6766283 63 166 C58.71 166.66 54.42 167.32 50 168 C49.484375 166.14375 48.96875 164.2875 48.4375 162.375 C46.9545448 157.36069106 45.10589283 153.51625951 42.3125 149.125 C37.663458 140.41915064 38.21456462 130.82856976 38.26293945 121.19189453 C38.27258577 107.0889831 34.8605252 95.51789355 25 85 C21.43825207 82.32868905 17.2688292 82.40029504 13 83 C9.40571737 84.34665395 6.07687037 86.1447947 2.6875 87.9375 C-14.32672309 96.4946861 -33.02508751 103.48723312 -52 106 C-52.9590625 106.12761719 -53.918125 106.25523438 -54.90625 106.38671875 C-84.90890841 109.42646177 -112.83107947 105.8685679 -140.4765625 93.75 C-143.4353098 92.87062 -145.08953151 93.02484303 -148 94 C-152.36996095 99.46245118 -152.11595721 105.8828797 -152.140625 112.6015625 C-152.15896581 114.0768382 -152.17853728 115.55209901 -152.19921875 117.02734375 C-152.22800192 119.31780126 -152.2499962 121.6072999 -152.25048828 123.89794922 C-152.26579848 133.9961212 -153.19486705 141.86730284 -158 151 C-158.38414062 151.75941895 -158.76828125 152.51883789 -159.1640625 153.30126953 C-159.80054358 154.55062239 -160.44112152 155.79789724 -161.0859375 157.04296875 C-162.7381296 160.5803544 -163.83675386 164.27761235 -165 168 C-168.3 167.34 -171.6 166.68 -175 166 C-175.14695313 165.03964844 -175.29390625 164.07929688 -175.4453125 163.08984375 C-177.01828079 153.31705002 -179.22003645 143.81133975 -181.81152344 134.25854492 C-184.05855936 125.96826003 -184.05855936 125.96826003 -184.7734375 122.03125 C-186.08401744 114.88263216 -188.38071637 110.56214349 -192.87890625 104.8671875 C-199.42062377 96.02442386 -204.20519317 84.66975732 -207 74 C-206.67 73.01 -206.34 72.02 -206 71 C-202.7 71.66 -199.4 72.32 -196 73 C-196.2165625 71.77925781 -196.433125 70.55851562 -196.65625 69.30078125 C-200.09215199 49.3089672 -201.15600425 23.86984687 -189.0390625 6.12890625 C-187 4 -187 4 -183.8125 3.1875 C-178.92928321 4.22818555 -176.93130514 6.48423054 -173.41015625 9.890625 C-166.00610684 16.37066825 -157.59234421 18.51385973 -147.96875 18.38671875 C-138.6463175 17.47833212 -130.25971774 13.02977126 -121.82421875 9.2109375 C-107.10849344 2.54977531 -92.51458152 -3.45184006 -77 -8 C-75.74316406 -8.38027344 -74.48632812 -8.76054687 -73.19140625 -9.15234375 C-48.20402285 -15.42085496 -22.68802478 -11.1503646 0 0 Z " fill="#3D3C66" transform="translate(315,11)"/>
<path d="M0 0 C4.70477236 2.94970054 7.01407734 6.83296734 9.75 11.5 C26.63246642 39.31048379 50.72290011 66.81553161 83.375 75.30078125 C101.72141568 78.83958341 118.58982061 72.61795419 134 63 C137.51966455 60.51956788 140.77556916 57.85050525 144 55 C144.81855469 54.30132812 145.63710938 53.60265625 146.48046875 52.8828125 C161.07897939 40.16286989 172.18873842 24.93471745 182.29663086 8.54638672 C186.69148746 1.53884304 186.69148746 1.53884304 190 0 C196.12815432 -0.58117375 200.94920697 0.55071687 206.6875 2.625 C207.53054688 2.92567383 208.37359375 3.22634766 209.2421875 3.53613281 C227.75038407 10.42060108 245.45725515 19.91513227 262.63671875 29.578125 C268.64424217 32.94712817 274.80403253 35.99434028 281 39 C279.6589316 41.95205008 278.1561292 44.13883888 275.9453125 46.50390625 C275.33703613 47.15641357 274.72875977 47.8089209 274.10205078 48.48120117 C273.44962402 49.16802979 272.79719727 49.8548584 272.125 50.5625 C271.44808105 51.27704346 270.77116211 51.99158691 270.07373047 52.7277832 C227.31343913 97.48664243 166.51726624 125.82399245 104.4296875 127.37890625 C39.46265022 128.62138745 -20.95889272 109.27517347 -70 66 C-70.50241211 65.56075195 -71.00482422 65.12150391 -71.52246094 64.66894531 C-77.74673082 59.20600447 -83.58820962 53.4748331 -89.25 47.4375 C-89.82363281 46.8293042 -90.39726563 46.2211084 -90.98828125 45.59448242 C-95 41.24578423 -95 41.24578423 -95 39 C-94.42241943 38.85957275 -93.84483887 38.71914551 -93.24975586 38.57446289 C-85.73692715 36.55585848 -79.3326589 33.21241924 -72.5625 29.4375 C-70.2502541 28.17271243 -67.93775239 26.90839243 -65.625 25.64453125 C-64.49707031 25.02400879 -63.36914062 24.40348633 -62.20703125 23.76416016 C-49.40543025 16.72211015 -36.62436948 10.21546583 -23.03564453 4.81347656 C-21.25388901 4.10145816 -19.48331592 3.36158601 -17.71484375 2.6171875 C-12.0095462 0.32222955 -6.15108783 -1.42755622 0 0 Z " fill="#FEF4ED" transform="translate(163,385)"/>
<path d="M0 0 C0.74169434 0.26893066 1.48338867 0.53786133 2.24755859 0.81494141 C3.08416016 1.11400391 3.92076172 1.41306641 4.78271484 1.72119141 C6.50167787 2.34299866 8.22043391 2.96537845 9.93896484 3.58837891 C16.14333998 5.80490376 22.39354423 7.63955931 28.77099609 9.29150391 C28.70168377 14.5389448 28.61351066 19.78562166 28.50854492 25.0324707 C28.47547972 26.81395933 28.44739167 28.59554809 28.42456055 30.37719727 C28.39067303 32.95192777 28.33834466 35.5257557 28.28271484 38.10009766 C28.27632492 38.8848497 28.269935 39.66960175 28.26335144 40.47813416 C28.09717724 46.85933354 26.63199492 52.56950624 23.77099609 58.29150391 C24.77477295 58.45755127 25.7785498 58.62359863 26.81274414 58.79467773 C30.55122066 59.41595843 34.28724811 60.05102165 38.02270508 60.69018555 C39.6369825 60.96443635 41.25189265 61.23499032 42.86743164 61.50170898 C45.19514018 61.88667341 47.5202176 62.28506016 49.84521484 62.68603516 C50.56311691 62.80179398 51.28101898 62.9175528 52.02067566 63.03681946 C56.18366366 63.77048566 59.36768221 64.75511234 62.77099609 67.29150391 C65.33716241 71.14075338 65.32197285 73.7264343 65.77099609 78.29150391 C60.61556975 77.4110266 55.48143564 76.45903581 50.37255859 75.33837891 C40.20010522 73.11006715 30.12931192 71.37734115 19.77099609 70.29150391 C19.75230469 70.89623535 19.73361328 71.5009668 19.71435547 72.12402344 C19.60626839 74.89137056 19.43919537 77.65218544 19.27099609 80.41650391 C19.24263672 81.36783203 19.21427734 82.31916016 19.18505859 83.29931641 C18.69930268 90.29420156 18.69930268 90.29420156 15.89208984 93.31005859 C13.90905842 94.79733216 11.94320045 96.10104093 9.77099609 97.29150391 C12.07382543 98.82672346 13.94961844 99.875083 16.45849609 100.91650391 C17.55162109 101.37025391 18.64474609 101.82400391 19.77099609 102.29150391 C23.06020618 133.17232864 23.06020618 133.17232864 23.4753418 145.8371582 C23.62391755 150.28452572 24.13479148 154.46028609 24.89599609 158.85400391 C25.40884111 164.01175952 23.72755045 166.36915966 20.52099609 170.35400391 C18.97276388 172.03289903 17.39276236 173.68352817 15.77099609 175.29150391 C15.17802734 175.88833984 14.58505859 176.48517578 13.97412109 177.10009766 C13.57708984 177.49326172 13.18005859 177.88642578 12.77099609 178.29150391 C-8.60994311 165.0556844 -16.82506923 143.69703506 -23.22900391 120.29150391 C-23.28435303 120.88165283 -23.33970215 121.47180176 -23.39672852 122.07983398 C-23.64968077 124.75491598 -23.9080309 127.42944993 -24.16650391 130.10400391 C-24.25351563 131.03277344 -24.34052734 131.96154297 -24.43017578 132.91845703 C-24.5171875 133.81113281 -24.60419922 134.70380859 -24.69384766 135.62353516 C-24.7723999 136.44571533 -24.85095215 137.26789551 -24.93188477 138.11499023 C-25.22900391 140.29150391 -25.22900391 140.29150391 -26.22900391 143.29150391 C-29.90391638 143.03511466 -31.89498012 142.54599822 -34.85400391 140.29150391 C-38.90736163 135.1714731 -40.93959288 130.05904602 -42.08447266 123.66259766 C-43.16651375 117.98830082 -45.21670772 112.887584 -47.35400391 107.54150391 C-50.6045638 98.99618791 -53.01257173 91.51321012 -51.22900391 82.29150391 C-49.54150391 78.66650391 -49.54150391 78.66650391 -47.22900391 76.29150391 C-46.20806641 75.11587891 -46.20806641 75.11587891 -45.16650391 73.91650391 C-40.69470583 71.44274327 -36.23364217 71.6731147 -31.22900391 72.29150391 C-28.38525391 73.31494141 -28.38525391 73.31494141 -26.22900391 74.29150391 C-26.13176025 73.74478027 -26.0345166 73.19805664 -25.93432617 72.63476562 C-24.77474495 66.75595851 -22.83472265 61.76248779 -20.16650391 56.41650391 C-19.4451405 54.9405816 -18.72503472 53.46404378 -18.00634766 51.98681641 C-17.68915771 51.34760254 -17.37196777 50.70838867 -17.04516602 50.04980469 C-15.15367202 45.97486011 -15.04851752 42.27702744 -14.98291016 37.87744141 C-14.94994262 36.37873829 -14.91673151 34.88004051 -14.88330078 33.38134766 C-14.83614981 31.03161667 -14.79176318 28.6819026 -14.75219727 26.33203125 C-14.37080301 4.72273532 -14.37080301 4.72273532 -9.91650391 -0.33349609 C-6.17602499 -2.24722949 -3.8827672 -1.2341501 0 0 Z " fill="#FBAC6D" transform="translate(176.22900390625,104.70849609375)"/>
<path d="M0 0 C4.70477236 2.94970054 7.01407734 6.83296734 9.75 11.5 C19.51967275 27.5935801 31.29787213 42.21774175 45.40625 54.6953125 C47.69254475 56.72680934 49.84911078 58.82796761 52 61 C50.99324219 61.32685791 49.98648438 61.65371582 48.94921875 61.99047852 C45.12948016 63.23301464 41.31332765 64.48628117 37.49804688 65.74243164 C35.86225283 66.27943635 34.22556298 66.81372173 32.58789062 67.3449707 C13.28353265 73.61177242 -4.05687313 80.58739574 -19.4921875 94.1796875 C-22.27340896 96.19845573 -23.56005313 97.03556814 -27 97 C-29.67419159 95.67037401 -31.9754003 94.3369313 -34.4375 92.6875 C-35.13979736 92.23109131 -35.84209473 91.77468262 -36.56567383 91.30444336 C-38.72439779 89.88935278 -40.86450687 88.44986649 -43 87 C-43.62712891 86.57686523 -44.25425781 86.15373047 -44.90039062 85.71777344 C-53.75046061 79.70106822 -61.98011506 73.07695913 -70 66 C-70.50241211 65.56075195 -71.00482422 65.12150391 -71.52246094 64.66894531 C-77.74673082 59.20600447 -83.58820962 53.4748331 -89.25 47.4375 C-89.82363281 46.8293042 -90.39726563 46.2211084 -90.98828125 45.59448242 C-95 41.24578423 -95 41.24578423 -95 39 C-94.42241943 38.85957275 -93.84483887 38.71914551 -93.24975586 38.57446289 C-85.73692715 36.55585848 -79.3326589 33.21241924 -72.5625 29.4375 C-70.2502541 28.17271243 -67.93775239 26.90839243 -65.625 25.64453125 C-64.49707031 25.02400879 -63.36914062 24.40348633 -62.20703125 23.76416016 C-49.40543025 16.72211015 -36.62436948 10.21546583 -23.03564453 4.81347656 C-21.25388901 4.10145816 -19.48331592 3.36158601 -17.71484375 2.6171875 C-12.0095462 0.32222955 -6.15108783 -1.42755622 0 0 Z " fill="#FCE5D5" transform="translate(163,385)"/>
<path d="M0 0 C0.33 0.66 0.66 1.32 1 2 C3.12576782 2.46651207 3.12576782 2.46651207 5.5625 2.625 C6.38878906 2.69976562 7.21507812 2.77453125 8.06640625 2.8515625 C8.70449219 2.90054687 9.34257812 2.94953125 10 3 C10 6 10 6 7.7890625 8.22265625 C6.86867188 9.13917969 5.94828125 10.05570312 5 11 C3.32107728 13.39816148 1.85989495 15.91585957 0.375 18.4375 C-16.60570255 46.33436848 -40.97945804 71.66542785 -73.3359375 80.265625 C-89.8100914 83.56748101 -105.88419277 78.59386929 -120 70 C-142.88360828 54.16822229 -159.74238487 33.185999 -174.1953125 9.625 C-175.89868965 6.79931363 -175.89868965 6.79931363 -179 5 C-179 4.34 -179 3.68 -179 3 C-173.555 2.01 -173.555 2.01 -168 1 C-167.48953125 1.77601563 -166.9790625 2.55203125 -166.453125 3.3515625 C-148.88969225 29.44758492 -127.33914069 46.78237511 -96.5 54.63671875 C-72.43678961 58.13340401 -49.56680185 49.22429167 -30.421875 35.09765625 C-17.94099803 25.43071933 -7.88215532 13.67632248 0 0 Z " fill="#FAAC6E" transform="translate(342,381)"/>
<path d="M0 0 C7.18201145 2.19949101 14.17733006 2.99215692 21.64331055 3.50561523 C26.98369545 3.92798021 31.00620924 4.9379696 35.8125 7.328125 C31.23998589 19.16151578 26.51082246 31.24461769 14.7109375 37.4296875 C1.65002807 42.82550723 -19.17709874 42.57459575 -32.1875 37.328125 C-42.19770612 32.73213471 -47.36091764 24.95693793 -51.33984375 14.96484375 C-52.1875 12.328125 -52.1875 12.328125 -52.1875 9.328125 C-45.1005671 3.75221984 -37.54804176 3.42686906 -28.90625 2.78515625 C-23.09342867 2.31634141 -17.51742411 1.21349616 -12.0625 -0.859375 C-7.750958 -2.07785426 -4.24611741 -1.30416463 0 0 Z " fill="#F8B98E" transform="translate(267.1875,289.671875)"/>
<path d="M0 0 C3.85738243 2.94634236 5.64813933 6.57017009 6.9921875 11.125 C7.7186203 18.33235283 6.37923608 24.03012065 3.7421875 30.6875 C1.29250576 37.19956043 -0.71262435 43.56356789 -2.1328125 50.375 C-3.7601458 57.93858856 -5.95749344 63.15093892 -11.5078125 68.5625 C-14.10620038 70.18649243 -16.02443108 70.61285286 -19.0078125 71.125 C-19.06316162 70.54532471 -19.11851074 69.96564941 -19.17553711 69.3684082 C-19.42948867 66.72451088 -19.68736444 64.08101028 -19.9453125 61.4375 C-20.07583008 60.06948242 -20.07583008 60.06948242 -20.20898438 58.67382812 C-20.29599609 57.78759766 -20.38300781 56.90136719 -20.47265625 55.98828125 C-20.5512085 55.17657471 -20.62976074 54.36486816 -20.71069336 53.52856445 C-20.96694329 51.09862518 -20.96694329 51.09862518 -21.58984375 48.65820312 C-22.06864955 45.75628197 -21.77290352 43.61612058 -21.23046875 40.73046875 C-21.04637451 39.69946045 -20.86228027 38.66845215 -20.67260742 37.60620117 C-20.4738501 36.51927979 -20.27509277 35.4323584 -20.0703125 34.3125 C-17.02382752 17.70804189 -17.02382752 17.70804189 -19.0078125 1.125 C-13.22426424 -1.51739177 -6.00952615 -2.61893747 0 0 Z " fill="#FBAC6C" transform="translate(384.0078125,177.875)"/>
<path d="M0 0 C1.46484375 1.9765625 1.46484375 1.9765625 2.9375 4.625 C13.73290289 22.31108559 28.61104011 34.54922486 46.69921875 44.22265625 C50 46 50 46 53 48 C51.75758865 49.77616574 50.50575129 51.54574043 49.25 53.3125 C48.55390625 54.29863281 47.8578125 55.28476562 47.140625 56.30078125 C43.67913228 60.66554671 43.67913228 60.66554671 41 62 C35.98081686 61.08278887 32.50819807 57.1518664 28.9375 53.75 C28.2762915 53.12230713 27.61508301 52.49461426 26.93383789 51.84790039 C13.6847265 39.0837655 3.59452659 24.65511955 -6.1875 9.11328125 C-7.97293157 6.32016292 -9.17708671 4.88194219 -12 3 C-12 2.34 -12 1.68 -12 1 C-3.30902794 -1.46244208 -3.30902794 -1.46244208 0 0 Z " fill="#FB985C" transform="translate(175,383)"/>
<path d="M0 0 C1.61007935 0.24786255 1.61007935 0.24786255 3.25268555 0.50073242 C17.50928406 2.85486031 17.50928406 2.85486031 22.125 6.875 C23.68891368 10.27881213 23.87680374 13.45914487 24.1875 17.1875 C16.44256075 15.8647688 8.76408519 14.27926896 1.09057617 12.59667969 C-12.05220669 9.76487717 -25.72254185 7.20379898 -37.640625 14.6796875 C-38.35734375 15.17726562 -39.0740625 15.67484375 -39.8125 16.1875 C-40.8025 16.8475 -41.7925 17.5075 -42.8125 18.1875 C-42.56593478 11.28367371 -40.70947703 7.11856272 -35.8125 2.1875 C-24.88790072 -4.58575155 -12.01749198 -1.88387977 0 0 Z " fill="#46446B" transform="translate(217.8125,165.8125)"/>
<path d="M0 0 C0.99386719 -0.02900391 1.98773438 -0.05800781 3.01171875 -0.08789062 C9.37914048 -0.14256466 14.25373425 0.52353029 19.5 4.3125 C23.54691778 8.53603848 26.19664474 13.39707238 26.5 19.3125 C22.94961249 17.60481921 19.70601621 15.57051816 16.40234375 13.43359375 C5.34626866 6.91800124 -13.91626997 12.382174 -25.5 15.3125 C-28.36076466 16.10875817 -31.21608597 16.91560482 -34.0625 17.76171875 C-36.61774825 18.33910657 -38.88919449 18.41040521 -41.5 18.3125 C-41.03395685 13.55885987 -40.37250217 10.17932984 -37.5 6.3125 C-34.02811707 3.99791138 -31.39996869 3.53305569 -27.3125 2.75 C-26.04019531 2.50121094 -24.76789063 2.25242188 -23.45703125 1.99609375 C-15.60497838 0.59787562 -7.96872798 0.07751681 0 0 Z " fill="#46446B" transform="translate(317.5,164.6875)"/>
<path d="M0 0 C2.02054804 1.64169528 4.02043058 3.30911778 6 5 C9.4727041 5.89811313 11.80400575 6.36544269 15.25 5.3125 C17.14143474 4.06042125 17.14143474 4.06042125 18.3125 1.875 C20 0 20 0 23.125 -0.4375 C27.65362091 0.07379591 31.85760414 1.06214099 36 3 C37.38125018 5.76250036 37.19079306 7.94731099 37 11 C34.54490613 13.45509387 33.74802903 13.23924341 30.375 13.375 C26.73175355 13.65005992 24.35357271 14.14795839 21.25 16.0625 C15.61328535 19.19655926 9.24267599 18.77005464 3 18 C0.89453125 17.12890625 0.89453125 17.12890625 -0.75 16.0625 C-4.62425223 13.60383993 -7.3665377 13.45248089 -11.86328125 13.2734375 C-14 13 -14 13 -16 11 C-16.375 7.5625 -16.375 7.5625 -16 4 C-11.97665196 -0.47038671 -5.65600428 -0.59536887 0 0 Z " fill="#FAAC6D" transform="translate(250,244)"/>
<path d="M0 0 C0.89138672 0.35964844 0.89138672 0.35964844 1.80078125 0.7265625 C8.78956904 3.22643994 13.87741879 2.88220302 21 1 C20.6710954 2.6675463 20.33623426 4.33391614 20 6 C19.87560547 6.61955566 19.75121094 7.23911133 19.62304688 7.87744141 C15.85275771 26.26856123 15.85275771 26.26856123 8.5 33.4375 C5.90161212 35.06149243 3.98338142 35.48785286 1 36 C0.94465088 35.42032471 0.88930176 34.84064941 0.83227539 34.2434082 C0.57832383 31.59951088 0.32044806 28.95601028 0.0625 26.3125 C-0.06801758 24.94448242 -0.06801758 24.94448242 -0.20117188 23.54882812 C-0.28818359 22.66259766 -0.37519531 21.77636719 -0.46484375 20.86328125 C-0.543396 20.05157471 -0.62194824 19.23986816 -0.70288086 18.40356445 C-0.97130927 15.95144296 -0.97130927 15.95144296 -1.5546875 13.37695312 C-2.11157659 10.4044355 -1.66716557 8.13969075 -1.0625 5.1875 C-0.86785156 4.21167969 -0.67320312 3.23585937 -0.47265625 2.23046875 C-0.31667969 1.49441406 -0.16070312 0.75835937 0 0 Z " fill="#FB985B" transform="translate(364,213)"/>
<path d="M0 0 C0.556875 0.22816406 1.11375 0.45632812 1.6875 0.69140625 C9.31214477 3.56352751 14.42392405 3.17411458 22 0 C23.28704828 7.42661643 22.85085622 14.54885072 22.125 22 C21.98892334 23.39835083 21.98892334 23.39835083 21.85009766 24.82495117 C21.47626772 28.39916981 21.14038247 31.5788526 20 35 C16.32508753 34.74361076 14.33402378 34.25449431 11.375 32 C6.70754138 26.10426279 4.78090708 19.90259291 3.50390625 12.57421875 C2.66503103 8.28880192 1.32635321 4.15590673 0 0 Z " fill="#FC985B" transform="translate(130,213)"/>
<path d="M0 0 C6.90312695 1.96406959 13.88386136 2.74620879 21 3.5625 C20 6.5625 20 6.5625 17.55859375 7.94921875 C4.47945365 13.40022457 4.47945365 13.40022457 -2.4375 10.5625 C-8.17954121 8.32170343 -13.46473349 9.29162143 -19 11.5625 C-26.33443805 12.46322046 -32.60729683 10.1935554 -39 6.5625 C-39.33 5.5725 -39.66 4.5825 -40 3.5625 C-39.15405273 3.44974731 -39.15405273 3.44974731 -38.29101562 3.3347168 C-35.69260203 2.98278179 -33.09639962 2.61648618 -30.5 2.25 C-29.1696875 2.07307617 -29.1696875 2.07307617 -27.8125 1.89257812 C-23.52310998 1.27755529 -19.59403397 0.53659391 -15.55078125 -1.05078125 C-9.89983428 -3.25769673 -5.60190784 -1.61354805 0 0 Z " fill="#F7AA6D" transform="translate(270,290.4375)"/>
<path d="M0 0 C2.67949484 0.74077661 4.57375935 1.61357677 7 3 C7.44809115 8.03853607 7.46324378 11.92527443 5.4375 16.625 C2.4158726 19.70811401 -1.47740334 19.60053107 -5.5625 19.6875 C-12.27845289 19.70746815 -12.27845289 19.70746815 -15.40234375 16.64453125 C-18.00404431 12.33804891 -18.43768364 8.98959349 -18 4 C-13.57570764 -2.09424585 -6.80944232 -0.67244209 0 0 Z " fill="#424169" transform="translate(217,191)"/>
<path d="M0 0 C1.13308594 -0.01417969 2.26617187 -0.02835938 3.43359375 -0.04296875 C6.43965357 0.17845139 8.08792684 0.5202344 10.5625 2.1875 C12.15811887 5.37873774 11.9424142 8.71495091 11.5625 12.1875 C9.92562815 15.77302881 8.87277417 16.98065055 5.5625 19.1875 C2.34765625 19.55859375 2.34765625 19.55859375 -1.375 19.625 C-2.60089844 19.66496094 -3.82679688 19.70492187 -5.08984375 19.74609375 C-8.4375 19.1875 -8.4375 19.1875 -10.81640625 16.78515625 C-13.42045185 12.61240848 -13.8677361 10.17823881 -13.4375 5.1875 C-9.67510712 0.25746794 -5.92215268 0.0336104 0 0 Z " fill="#43436B" transform="translate(307.4375,190.8125)"/>
<path d="M0 0 C1.13566406 -0.01417969 2.27132812 -0.02835938 3.44140625 -0.04296875 C6.4375 0.1875 6.4375 0.1875 9.4375 2.1875 C9.1075 2.8475 8.7775 3.5075 8.4375 4.1875 C8.39727609 6.5204866 8.39429753 8.85456666 8.4375 11.1875 C6.67986328 11.19136719 6.67986328 11.19136719 4.88671875 11.1953125 C-5.01684538 11.37986406 -12.25767088 12.26893558 -20.5625 18.1875 C-21.5525 18.8475 -22.5425 19.5075 -23.5625 20.1875 C-23.31593478 13.28367371 -21.45947703 9.11856272 -16.5625 4.1875 C-11.05905486 0.77536401 -6.40210959 0.03641701 0 0 Z " fill="#3C395F" transform="translate(198.5625,163.8125)"/>
<path d="M0 0 C0.12375 1.093125 0.2475 2.18625 0.375 3.3125 C0.75464801 7.07381802 0.75464801 7.07381802 3 10 C-1.79766612 11.68792691 -6.61950275 12.95940239 -11.5625 14.125 C-12.30435547 14.30675781 -13.04621094 14.48851562 -13.81054688 14.67578125 C-17.61643893 15.57726592 -21.0576984 16.23419613 -25 16 C-24.53395685 11.24635987 -23.87250217 7.86682984 -21 4 C-14.65939616 -0.22706923 -7.41567962 -0.2354184 0 0 Z " fill="#3A385F" transform="translate(301,167)"/>
<path d="M0 0 C1.71703125 -0.01160156 1.71703125 -0.01160156 3.46875 -0.0234375 C6.5 0.375 6.5 0.375 8.4140625 1.67578125 C9.5 3.375 9.5 3.375 9.375 6.9375 C8.5 10.375 8.5 10.375 5.5 12.375 C0.62298356 13.01534109 -3.95097697 13.34764237 -8.1875 10.6875 C-9.75613705 7.92371092 -10.06114721 6.5013916 -9.5 3.375 C-6.97288411 -0.29680253 -4.23055935 -0.02858486 0 0 Z " fill="#FBAD6E" transform="translate(260.5,311.625)"/>
<path d="M0 0 C0.10957031 0.66386719 0.21914063 1.32773438 0.33203125 2.01171875 C1.21136023 6.90879478 1.99451714 10.90161428 5 15 C3.3745692 14.85904936 1.74965949 14.71207913 0.125 14.5625 C-0.77992188 14.48128906 -1.68484375 14.40007812 -2.6171875 14.31640625 C-5 14 -5 14 -7 13 C-8.53668865 12.77532169 -10.07968054 12.59203195 -11.625 12.4375 C-12.44226563 12.35371094 -13.25953125 12.26992187 -14.1015625 12.18359375 C-14.72804688 12.12300781 -15.35453125 12.06242188 -16 12 C-14.69881926 8.09645778 -13.09616418 7.54661944 -9.625 5.4375 C-8.64789063 4.83808594 -7.67078125 4.23867187 -6.6640625 3.62109375 C-5.78492188 3.08613281 -4.90578125 2.55117187 -4 2 C-1 0 -1 0 0 0 Z " fill="#FCEFE7" transform="translate(294,195)"/>
<path d="M0 0 C4.12678821 1.44098089 7.30186428 3.47299494 10.8125 6.0625 C11.78832031 6.77535156 12.76414063 7.48820313 13.76953125 8.22265625 C14.50558594 8.80917969 15.24164063 9.39570313 16 10 C16 10.33 16 10.66 16 11 C13.41806023 11.67250524 10.83467929 12.33817901 8.25 13 C7.52039063 13.19078125 6.79078125 13.3815625 6.0390625 13.578125 C2.55428354 14.46515964 -0.38123722 15 -4 15 C-3 13 -2 11 -1 9 C-0.77532169 7.46331135 -0.59203195 5.92031946 -0.4375 4.375 C-0.35371094 3.55773437 -0.26992187 2.74046875 -0.18359375 1.8984375 C-0.12300781 1.27195313 -0.06242188 0.64546875 0 0 Z " fill="#FAEEE7" transform="translate(224,195)"/>
<path d="M0 0 C-0.03480469 0.56847656 -0.06960937 1.13695312 -0.10546875 1.72265625 C-0.30230592 7.33720226 0.44504683 10.99655005 3 16 C-0.91121498 15.31063929 -4.55508596 14.21749819 -8.3125 12.9375 C-9.38113281 12.57527344 -10.44976562 12.21304688 -11.55078125 11.83984375 C-12.35902344 11.56269531 -13.16726562 11.28554687 -14 11 C-14 10.01 -14 9.02 -14 8 C-12.35546875 6.46484375 -12.35546875 6.46484375 -10.1875 4.9375 C-9.47980469 4.43089844 -8.77210938 3.92429688 -8.04296875 3.40234375 C-3.08635097 0 -3.08635097 0 0 0 Z " fill="#FCEFE7" transform="translate(200,193)"/>
<path d="M0 0 C4.19914831 0.55988644 6.85996274 1.95055161 10.3125 4.375 C11.19550781 4.98085937 12.07851563 5.58671875 12.98828125 6.2109375 C13.65214844 6.80132812 14.31601562 7.39171875 15 8 C15 8.99 15 9.98 15 11 C12.89748139 11.67184618 10.79292237 12.33730968 8.6875 13 C6.92986328 13.556875 6.92986328 13.556875 5.13671875 14.125 C2 15 2 15 -1 15 C-0.835 14.38125 -0.67 13.7625 -0.5 13.125 C0.20075317 8.74529271 0.07734251 4.42571011 0 0 Z " fill="#FBEFE8" transform="translate(318,193)"/>
<path d="M0 0 C2.375 0.6875 2.375 0.6875 3.375 1.6875 C3.625 4.625 3.625 4.625 3.375 7.6875 C0.375 9.6875 0.375 9.6875 -2.25 9.375 C-4.625 8.6875 -4.625 8.6875 -5.625 7.6875 C-5.875 4.75 -5.875 4.75 -5.625 1.6875 C-2.625 -0.3125 -2.625 -0.3125 0 0 Z " fill="#35355E" transform="translate(307.625,195.3125)"/>
</svg>
